# xmcd CD database file
# Copyright (C) 1996 Ti Kan
#
# Track frame offsets:
#  150
#  14372
#  29635
#  43002
#  56302
#  69572
#  83600
#  98110
#  112745
#  126185
#  140685
#  155885
#  170955
#  184835
#  198250
#  212047
#  226307
#  240222
#  254765
#  267417
#  281572
#  295660
#  311692
#
# Disc length: 4357 seconds
#
# Revision: 2
# Processed by: cddbd v1.4b41PL1 Copyright (c) Steve Scherf et al.
# Submitted via: CDWizzard Release:4.12
#
DISCID=53110317
DTITLE=Texas Alexander - Texas Alexander:  Complete Recorded Works (Volu
DTITLE=me 2)
DYEAR=1900
DGENRE=
TTITLE0=Penitentiary Blues
TTITLE1=Blue Devil Blues
TTITLE2=Tell Me Woman Blues
TTITLE3='Frisco Train Blues
TTITLE4=St. Louis Fair Blues
TTITLE5=I Am Calling Blues
TTITLE6=Double Crossing Blues
TTITLE7=Ninety-Eight Degree Blues
TTITLE8=Ninety-Eight Degree Blues
TTITLE9=Someday, Baby, your Troubles Is Gonna Be Like Mine
TTITLE10=Water Bound Blues
TTITLE11=Awful Moaning Blues - Part 1
TTITLE12=Awful Moaning Blues - Part 2
TTITLE13=Gold Tooth Blues
TTITLE14=Johnny Behren's Blues
TTITLE15=Rolling Mill Blues
TTITLE16=Broken Yo Yo
TTITLE17=Texas Special
TTITLE18=When You Get To Thinking
TTITLE19=Thirty Day Blues
TTITLE20=Peaceful Blues
TTITLE21=Days Is Lonesome
TTITLE22=Seen Better Days
EXTD=Document Records MBCD 2002\n\nTexas Alexander:  vocal\nLonnie Johnso
EXTD=n:  guitar\nClarence Williams:  piano\nEddie Lang:  guitar\nCarl Dav
EXTD=is:  guitar\nMississippi Shieks\nLittle Hat Jones:  guitar\n\nSubmit
EXTD=ted March 1997\nJames R. McCoy
EXTT0=
EXTT1=
EXTT2=
EXTT3=
EXTT4=
EXTT5=
EXTT6=
EXTT7=
EXTT8=
EXTT9=
EXTT10=
EXTT11=
EXTT12=
EXTT13=
EXTT14=
EXTT15=
EXTT16=
EXTT17=
EXTT18=
EXTT19=
EXTT20=
EXTT21=
EXTT22=
PLAYORDER=
